<mxfile host="app.diagrams.net" modified="2024-05-22T04:50:05.606Z" agent="Mozilla/5.0 (Macintosh; Intel Mac OS X 10_15_7) AppleWebKit/537.36 (KHTML, like Gecko) Chrome/125.0.0.0 Safari/537.36" version="24.4.4" etag="KfAthPB2m-B2m1CwLxnq" type="github">
  <diagram name="Page-1" id="6ZZeitj-w5p_BCO2KC4w">
    <mxGraphModel>
      <root>
        <mxCell id="0" />
        <mxCell id="1" parent="0" />
      </root>
    </mxGraphModel>
  </diagram>
</mxfile>
